PathFileType	4	(X/Y/Z)	/Users/niels/Desktop/University/Third Semester/Perception and Action/Exam/Gymnastics Motion Tracking/Code for Gym Tracking/Analyzed Data/Webcam_Backflip/id1_1_trajectory_Sports2D/id1_1_trajectory_Sports2D_px_person00.trc
DataRate	CameraRate	NumFrames	NumMarkers	Units	OrigDataRate	OrigDataStartFrame	OrigNumFrames
29.702970297029704	29.702970297029704	7	22	m	29.702970297029704	50	101
Frame#	Time	Hip			RHip			RKnee			RAnkle			RBigToe			RSmallToe			RHeel			LHip			LKnee			LAnkle			LBigToe			LSmallToe			LHeel			Neck			Head			Nose			RShoulder			RElbow			RWrist			LShoulder			LElbow			LWrist		
		X1	Y1	Z1	X2	Y2	Z2	X3	Y3	Z3	X4	Y4	Z4	X5	Y5	Z5	X6	Y6	Z6	X7	Y7	Z7	X8	Y8	Z8	X9	Y9	Z9	X10	Y10	Z10	X11	Y11	Z11	X12	Y12	Z12	X13	Y13	Z13	X14	Y14	Z14	X15	Y15	Z15	X16	Y16	Z16	X17	Y17	Z17	X18	Y18	Z18	X19	Y19	Z19	X20	Y20	Z20	X21	Y21	Z21	X22	Y22	Z22
50	1.6833333333333331	1.1027224595298024	-0.7274135144914999	0.0	1.0686388162525269	-0.7317984576117439	0.0	1.0906701863953692	-0.865076556730608	0.0	1.0964122625017507	-0.9884581864892532	0.0	1.0907067156705805	-1.004848251494669	0.0	1.0738228091401851	-1.0047571348905329	0.0	1.097673085691036	-0.994955138130309	0.0	1.1389626161551722	-0.7245839490174453	0.0	1.1561498824393355	-0.8591171349372931	0.0	1.1603395492422015	-0.9898868128665099	0.0	1.1625648269508673	-1.0085491861665357	0.0	1.178850259699921	-1.006822106962576	0.0	1.1534301712432613	-1.0002786426126689	0.0	1.0700341301659433	-0.49858112216690126	0.0	1.057255780727854	-0.40498183344010286	0.0	1.0671373566780458	-0.4526159542847389	0.0	1.012498223233369	-0.5457239749574674	0.0	0.9881781462565371	-0.6402490449041255	0.0	1.0005031324349611	-0.6921416312214975	0.0	1.137326325386559	-0.5246893034374134	0.0	1.210255015620592	-0.5906538970234352	0.0	1.2741746659956261	-0.6020589468216921	0.0
51	1.7169999999999999	1.1061901600842021	-0.7179801250009588	0.0	1.0710812484957923	-0.7209908133416205	0.0	1.0888268440778648	-0.8544661689805058	0.0	1.0954261624235335	-0.974117260847521	0.0	1.0912815920589989	-0.9971587713256894	0.0	1.0728407083791753	-0.9962783218854382	0.0	1.0979118451918575	-0.9826721423699621	0.0	1.143050329614165	-0.7149428990331834	0.0	1.1558341120390785	-0.8490452792154074	0.0	1.1583049358830502	-0.9788477083852726	0.0	1.156995511823028	-1.002143863686314	0.0	1.1748620552188178	-1.0007302818107877	0.0	1.152524036981279	-0.9897522943355451	0.0	1.0767319582230928	-0.48787599988673713	0.0	1.064829119634335	-0.39266011843624854	0.0	1.073650952642643	-0.4412087661115845	0.0	1.0175699785997567	-0.5334607606346159	0.0	0.9893565355338401	-0.6253503223593958	0.0	0.9913119382387995	-0.6739546550546142	0.0	1.1451215427087371	-0.5141781898781985	0.0	1.2194527234263404	-0.5812316724647932	0.0	1.2756010046554835	-0.5773655344284971	0.0
52	1.7506666666666666	1.1075211988860296	-0.6988629355159398	0.0	1.0713354398139394	-0.7009510542370623	0.0	1.0867702394361718	-0.8346929723887606	0.0	1.0959531622563814	-0.9496130718562542	0.0	1.0952796541255114	-0.9799714325187037	0.0	1.075465706237751	-0.9778516223190242	0.0	1.09973474142973	-0.959168475024406	0.0	1.1451279869423532	-0.6957451982738142	0.0	1.1552326436665823	-0.8292210343501145	0.0	1.1567206765311295	-0.9588436982284132	0.0	1.1523057735813156	-0.987003051807653	0.0	1.1716812718039944	-0.9853976219675017	0.0	1.152269058030099	-0.970325728034334	0.0	1.0818315579338786	-0.46751347943602045	0.0	1.0712336466370564	-0.369766599727678	0.0	1.078934160267092	-0.4203502650855055	0.0	1.0209249106926637	-0.5114629426007561	0.0	0.9891363579311486	-0.6008850038782299	0.0	0.9795091431701134	-0.6451783516032815	0.0	1.1510384493813435	-0.49461109658094	0.0	1.2254758369775203	-0.5646220037061924	0.0	1.2730552047287222	-0.5480798988906899	0.0
53	1.784333333333333	1.1071695335023055	-0.6725786599632428	0.0	1.0699291438462346	-0.6744149364931643	0.0	1.0847240361542279	-0.8089651192556621	0.0	1.0976877754800494	-0.918031427365583	0.0	1.1008230212382422	-0.9549560130484656	0.0	1.08027260214499	-0.9511600655709024	0.0	1.1029608559726407	-0.9275299007847289	0.0	1.1455705306923187	-0.6697359857331632	0.0	1.1551058443999438	-0.8030793987938512	0.0	1.1560387645084087	-0.9319608938992836	0.0	1.1500165012681582	-0.9643191101043685	0.0	1.1704994264018056	-0.9617239787223069	0.0	1.1526547744189493	-0.9436971628533422	0.0	1.0851845489174017	-0.4396085220535971	0.0	1.0760181817082775	-0.33877296447798444	0.0	1.0827539903214785	-0.39206260326283926	0.0	1.022578077648271	-0.48230308095647195	0.0	0.987455106105936	-0.5697858361282853	0.0	0.9661481639621553	-0.6081239253795895	0.0	1.1551864580874203	-0.4680204440298409	0.0	1.2288437635375344	-0.5422047464288478	0.0	1.2683892266964545	-0.5162796765116113	0.0
54	1.8179999999999998	1.1056142807954896	-0.6422674549380575	0.0	1.0673912033587503	-0.6444688877310957	0.0	1.0826406326193823	-0.7808448655623988	0.0	1.1001452294616334	-0.8834110956564117	0.0	1.1060976606409616	-0.9258785550298804	0.0	1.0853284599783473	-0.9203087737527914	0.0	1.1071066835239827	-0.8923224872543306	0.0	1.1447926440263063	-0.6401111382898056	0.0	1.1559624435909062	-0.7746074995876007	0.0	1.156225758657021	-0.9000168669228928	0.0	1.1508453461402053	-0.9364562923216677	0.0	1.1717959683812724	-0.9320514522911756	0.0	1.1532489197123217	-0.911428086802906	0.0	1.0868898919061074	-0.407097949985298	0.0	1.0790098322467057	-0.30294278479422626	0.0	1.0849865269296852	-0.3591419097697572	0.0	1.0227130525055985	-0.44902217276882916	0.0	0.9842054708825017	-0.5353318311103438	0.0	0.9522138227753949	-0.5662784953788006	0.0	1.157867854772432	-0.43698494930662124	0.0	1.2303390605657836	-0.5158359907195422	0.0	1.263084782472959	-0.4840151101134939	0.0
55	1.8516666666666666	1.1034351177354136	-0.6109724098936256	0.0	1.0642691006641607	-0.6138742914794154	0.0	1.0803738939066743	-0.753380808511444	0.0	1.1027133651947072	-0.850357470651341	0.0	1.1100117085370098	-0.8971786801945918	0.0	1.0890896192583994	-0.8902961302408943	0.0	1.1113396992321847	-0.8586608301890299	0.0	1.1433444177588945	-0.609800707073144	0.0	1.1580230620081136	-0.7473056634881559	0.0	1.156710608444393	-0.8644160989617227	0.0	1.154247899189859	-0.9057145622965457	0.0	1.1749772930056972	-0.898924984149604	0.0	1.153332121394069	-0.87442877297578	0.0	1.0872813236782044	-0.3730646146920371	0.0	1.0803294468891542	-0.2657181065076564	0.0	1.0856560208164856	-0.32458189840350404	0.0	1.0216023014523645	-0.41460157953661564	0.0	0.9793922166822625	-0.5005577770737148	0.0	0.9385160814989488	-0.5235440090174969	0.0	1.1595038297333604	-0.4041546081446091	0.0	1.230751587663985	-0.4874880781615659	0.0	1.257886008573977	-0.4532201646051306	0.0
56	1.885333333333333	1.1012467656255278	-0.5812039614679585	0.0	1.0610575991404743	-0.5848628387598139	0.0	1.0777805148618478	-0.7287591517598211	0.0	1.104793226020775	-0.8235627023293961	0.0	1.1121292189405179	-0.8729766189271867	0.0	1.0908871877382191	-0.8656581702412766	0.0	1.1147957844330934	-0.8317085508770468	0.0	1.1418519205644322	-0.5810945958770567	0.0	1.1612328388046553	-0.7234735684421841	0.0	1.1566556867265911	-0.8266982100412488	0.0	1.1587422706413995	-0.8739554952609403	0.0	1.178687821134166	-0.8645434943704929	0.0	1.1521767099995286	-0.8338755500294328	0.0	1.0868004035615866	-0.3400729658633083	0.0	1.080269126467507	-0.22992697201787143	0.0	1.0850103030148597	-0.2909240522494621	0.0	1.0195292107398766	-0.3815663216962026	0.0	0.9732938804803488	-0.4679246878735169	0.0	0.925640914710498	-0.4835475527483525	0.0	1.1605179189645698	-0.37189068338371334	0.0	1.2306932956257404	-0.45897688557177363	0.0	1.2528620011636031	-0.42565706456734104	0.0
